<svg id="Layer_1" data-name="Layer 1" xmlns="http://www.w3.org/2000/svg" width="380" height="160" viewBox="0 0 380 160"><defs><style>.cls-1{fill:#e77500;}.cls-2{fill:#fff;}.cls-3{fill:none;}</style></defs><title>PFQC_logoSVG_01</title><path class="cls-1" d="M273.8,53.17c-13.46,0-23.55,9.36-23.55,22.75s10.09,22.75,23.55,22.75,23.47-9.37,23.47-22.75S287.25,53.17,273.8,53.17Zm8.56,31.91L278.82,79l-7.8,4.5,3,5.19h-.21c-7.32,0-12-5.61-12-12.73s4.69-12.73,12-12.73,11.93,5.54,11.93,12.73A13.27,13.27,0,0,1,282.36,85.08Z"/><path d="M171.71,53.89h22c9.9,0,15.3,6.66,15.3,14.64S203.63,83,193.73,83H183.05V97.88H171.71Zm20.51,9.56h-9.17v9.89h9.17c3,0,5.27-1.91,5.27-4.88A4.92,4.92,0,0,0,192.22,63.45Z"/><path class="cls-1" d="M214.11,53.89h32.25v9.56h-20.9v7.32H245.9V80.4H225.46V97.88H214.11Z"/><path class="cls-1" d="M300.77,75.92c0-13.59,10.29-22.75,23.48-22.75,10.95,0,16.62,6,19.52,11.8L334,69.59a10.67,10.67,0,0,0-9.76-6.4c-6.86,0-11.94,5.54-11.94,12.73s5.08,12.73,11.94,12.73a10.68,10.68,0,0,0,9.76-6.4l9.76,4.61c-2.84,5.68-8.57,11.81-19.52,11.81C311.06,98.67,300.77,89.44,300.77,75.92Z"/><rect class="cls-2" x="277.17" y="88.39" width="9" height="9" transform="translate(221.28 -197.49) rotate(60)"/><rect x="281.67" y="96.19" width="9" height="9" transform="translate(230.28 -197.49) rotate(60)"/><path class="cls-2" d="M75.2,135.73c-7.46-5.57-32.6-26.74-40.7-64,0,0-.2-.88-.24-1.08A110.91,110.91,0,0,1,32,48.28c0-2.14.06-4.29.18-6.42a40.07,40.07,0,0,0,9.76,1.2A40.23,40.23,0,0,0,75.2,25.38a40.19,40.19,0,0,0,33.25,17.68,40,40,0,0,0,9.76-1.2c.12,2.13.18,4.28.18,6.42a110.91,110.91,0,0,1-2.26,22.32c0,.2-.24,1.08-.24,1.08C107.79,109,82.65,130.16,75.2,135.73Z"/><rect class="cls-1" x="142.42" y="56.57" width="9.01" height="9" transform="translate(20.58 157.78) rotate(-60)"/><rect class="cls-1" x="151.43" y="40.94" width="9.03" height="9" transform="translate(38.62 157.78) rotate(-60)"/><path class="cls-1" d="M75.2,72.1v66.11c11.91-8.46,35-30.86,42.64-66.11Z"/><polygon points="98.86 131.12 75.2 90.13 59.46 117.39 51.66 112.89 75.2 72.13 98.86 113.12 112.53 89.45 118.94 100.55 140.78 62.72 148.57 67.22 118.94 118.55 112.53 107.45 98.86 131.12"/><path d="M120,39.26a38,38,0,0,1-11.59,1.8A38.11,38.11,0,0,1,75.2,21.58,38.14,38.14,0,0,1,41.94,41.06a38,38,0,0,1-11.59-1.8c-.23,2.94-.35,5.94-.35,9A112.76,112.76,0,0,0,32.3,71c.08.37.17.74.25,1.1H75.2V29.59a42.7,42.7,0,0,0,33.25,16,43.37,43.37,0,0,0,7.39-.64c0,1.12,0,2.24,0,3.36a108,108,0,0,1-2.21,21.81c-.14.68-.3,1.35-.45,2h4.61c.08-.36.17-.73.25-1.1a112.76,112.76,0,0,0,2.3-22.72C120.39,45.2,120.27,42.2,120,39.26Z"/><path class="cls-1" d="M76.44,132.74s-1.23-.17-1.24-.16c-8.6-6.76-30.41-26.78-38-60.48H32.55c7.65,35.25,30.73,57.65,42.65,66.11C75.22,138.19,76.44,132.74,76.44,132.74Z"/><path class="cls-3" d="M120,39.26a38,38,0,0,1-11.59,1.8A38.11,38.11,0,0,1,75.2,21.58,38.14,38.14,0,0,1,41.94,41.06a38,38,0,0,1-11.59-1.8c-.23,2.94-.35,5.94-.35,9A112.76,112.76,0,0,0,32.3,71c.08.37.17.74.25,1.1h0c7.65,35.25,30.73,57.65,42.65,66.11h0c11.91-8.46,35-30.86,42.64-66.11h0c.08-.36.17-.73.25-1.1a112.76,112.76,0,0,0,2.3-22.72C120.39,45.2,120.27,42.2,120,39.26Z"/></svg>