<svg id="Layer_1" data-name="Layer 1" xmlns="http://www.w3.org/2000/svg" width="520" height="160" viewBox="0 0 520 160"><defs><style>.cls-1{fill:#fff;}.cls-2{fill:#e77500;}.cls-3{fill:none;}</style></defs><title>PFQC_logoSVG_01</title><path class="cls-1" d="M75.2,135.73c-7.46-5.57-32.6-26.74-40.7-64,0,0-.2-.88-.24-1.08A110.91,110.91,0,0,1,32,48.28c0-2.14.06-4.29.18-6.42a40.07,40.07,0,0,0,9.76,1.2A40.23,40.23,0,0,0,75.2,25.38a40.19,40.19,0,0,0,33.25,17.68,40,40,0,0,0,9.76-1.2c.12,2.13.18,4.28.18,6.42a110.91,110.91,0,0,1-2.26,22.32c0,.2-.24,1.08-.24,1.08C107.79,109,82.65,130.16,75.2,135.73Z"/><rect class="cls-2" x="142.42" y="56.57" width="9.01" height="9" transform="translate(20.58 157.78) rotate(-60)"/><rect class="cls-2" x="151.43" y="40.94" width="9.03" height="9" transform="translate(38.62 157.78) rotate(-60)"/><path class="cls-2" d="M75.2,72.1v66.11c11.91-8.46,35-30.86,42.64-66.11Z"/><polygon points="98.86 131.12 75.2 90.13 59.46 117.39 51.66 112.89 75.2 72.13 98.86 113.12 112.53 89.45 118.94 100.55 140.78 62.72 148.57 67.22 118.94 118.55 112.53 107.45 98.86 131.12"/><path d="M120,39.26a38,38,0,0,1-11.59,1.8A38.11,38.11,0,0,1,75.2,21.58,38.14,38.14,0,0,1,41.94,41.06a38,38,0,0,1-11.59-1.8c-.23,2.94-.35,5.94-.35,9A112.76,112.76,0,0,0,32.3,71c.08.37.17.74.25,1.1H75.2V29.59a42.7,42.7,0,0,0,33.25,16,43.37,43.37,0,0,0,7.39-.64c0,1.12,0,2.24,0,3.36a108,108,0,0,1-2.21,21.81c-.14.68-.3,1.35-.45,2h4.61c.08-.36.17-.73.25-1.1a112.76,112.76,0,0,0,2.3-22.72C120.39,45.2,120.27,42.2,120,39.26Z"/><path class="cls-2" d="M76.44,132.74s-1.23-.17-1.24-.16c-8.6-6.76-30.41-26.78-38-60.48H32.55c7.65,35.25,30.73,57.65,42.65,66.11C75.22,138.19,76.44,132.74,76.44,132.74Z"/><path class="cls-3" d="M120,39.26a38,38,0,0,1-11.59,1.8A38.11,38.11,0,0,1,75.2,21.58,38.14,38.14,0,0,1,41.94,41.06a38,38,0,0,1-11.59-1.8c-.23,2.94-.35,5.94-.35,9A112.76,112.76,0,0,0,32.3,71c.08.37.17.74.25,1.1h0c7.65,35.25,30.73,57.65,42.65,66.11h0c11.91-8.46,35-30.86,42.64-66.11h0c.08-.36.17-.73.25-1.1a112.76,112.76,0,0,0,2.3-22.72C120.39,45.2,120.27,42.2,120,39.26Z"/><path d="M172.93,40.2h16c7.2,0,11.14,4.85,11.14,10.65S196.16,61.37,189,61.37h-7.77V72.22h-8.26Zm14.93,7h-6.67v7.2h6.67a3.53,3.53,0,0,0,3.84-3.55A3.58,3.58,0,0,0,187.86,47.16Z"/><path d="M217.72,61.37h-4.23V72.22h-8.26v-32h16c7.1,0,11.13,4.7,11.13,10.65A9.71,9.71,0,0,1,226,60.46l6.53,11.76h-9.46ZM220,47.16h-6.53v7.2H220a3.62,3.62,0,1,0,0-7.2Z"/><path d="M238.4,40.2h8.26v32H238.4Z"/><path d="M262.11,52.87V72.22h-8.25v-32h8.49l13,18.43V40.2h8.31v32h-8Z"/><path d="M289.18,56.23c0-9.89,7.49-16.56,17.09-16.56,8,0,12.1,4.37,14.21,8.59l-7.1,3.36A7.77,7.77,0,0,0,306.27,47c-5,0-8.68,4-8.68,9.26s3.69,9.27,8.68,9.27a7.78,7.78,0,0,0,7.11-4.66l7.1,3.36c-2.06,4.13-6.24,8.59-14.21,8.59C296.67,72.79,289.18,66.07,289.18,56.23Z"/><path d="M325.47,40.2H349v7H333.73v5.33h14.88v7H333.73v5.76H349v7H325.47Z"/><path d="M362.34,47.4h-9V40.2h26.16v7.2h-8.93V72.22h-8.25Z"/><path d="M399.34,39.67c9.8,0,17.09,6.82,17.09,16.56s-7.29,16.56-17.09,16.56S382.21,66,382.21,56.23,389.55,39.67,399.34,39.67Zm0,7.3c-5.32,0-8.73,4-8.73,9.26s3.41,9.27,8.73,9.27S408,61.42,408,56.23,404.63,47,399.34,47Z"/><path d="M430.3,52.87V72.22h-8.25v-32h8.49l13,18.43V40.2h8.3v32h-8Z"/><path class="cls-2" d="M172.71,80.21h16.13v3.16H176.31v7h12.28v3.17H176.31v10.66h-3.6Z"/><path class="cls-2" d="M193.81,80.21h3.6v24h-3.6Z"/><path class="cls-2" d="M207.45,85.79v18.43h-3.6v-24h3.71l13.07,18v-18h3.6v24h-3.49Z"/><path class="cls-2" d="M236.5,83.37h-7.45V80.21h18.47v3.16H240.1v20.85h-3.6Z"/><path class="cls-2" d="M252.34,80.21h16.13v3.16H255.94v7h12.28v3.17H255.94v7.49h12.53v3.17H252.34Z"/><path class="cls-2" d="M273.05,92.23a12,12,0,0,1,12.31-12.42,10.84,10.84,0,0,1,9.53,5.08l-3.05,1.62A7.61,7.61,0,0,0,285.36,83c-4.86,0-8.61,3.81-8.61,9.21s3.75,9.21,8.61,9.21A7.61,7.61,0,0,0,291.84,98l3.05,1.62a10.88,10.88,0,0,1-9.53,5.08A12,12,0,0,1,273.05,92.23Z"/><path class="cls-2" d="M316.46,93.49H303.18v10.73h-3.6v-24h3.6V90.29h13.28V80.21h3.6v24h-3.6Z"/><path class="cls-2" d="M356.45,104.22h-4.32c-.64-.58-1.47-1.41-2.37-2.31a9.86,9.86,0,0,1-6.84,2.74c-4.21,0-7.6-2.27-7.6-6.77,0-3.74,2.49-5.65,5.26-7.09a11.41,11.41,0,0,1-1.76-5.33c0-3.2,2.69-5.61,6.26-5.61,3.2,0,5.69,1.76,5.69,4.82,0,3.64-3,5.18-6,6.7.9,1.22,1.83,2.34,2.55,3.2.9,1,1.77,2,2.63,3a22.44,22.44,0,0,0,2.49-5.26l2.7,1.23a32.74,32.74,0,0,1-3.28,6C353.25,101.08,354.73,102.56,356.45,104.22ZM347.89,100c-1.26-1.33-2.49-2.66-3.13-3.46-.94-1.11-1.91-2.34-2.85-3.63-1.76,1.11-3.13,2.52-3.13,4.75a4.29,4.29,0,0,0,4.5,4.39A6.61,6.61,0,0,0,347.89,100Zm-4.43-10.58c2.37-1.19,4.39-2.38,4.39-4.57a2.41,2.41,0,0,0-2.63-2.52,3.08,3.08,0,0,0-3.09,3.23A8.15,8.15,0,0,0,343.46,89.39Z"/><path class="cls-2" d="M391.34,101l2.12,2.34L391,105.44l-2.2-2.41a12.45,12.45,0,0,1-6.3,1.62c-7.16,0-12.09-5.29-12.09-12.42s4.93-12.42,12.09-12.42,12.1,5.29,12.1,12.42A12.67,12.67,0,0,1,391.34,101Zm-4.86-.51-3.21-3.53,2.52-2.12L389,98.35a10,10,0,0,0,1.91-6.12c0-5.29-3.31-9.21-8.39-9.21s-8.38,3.92-8.38,9.21,3.24,9.21,8.38,9.21A8.45,8.45,0,0,0,386.48,100.47Z"/><path class="cls-2" d="M400,80.21h3.63v14.5c0,4.11,2.27,6.73,6.48,6.73s6.44-2.62,6.44-6.73V80.21h3.64V94.79c0,6-3.35,9.86-10.08,9.86S400,100.73,400,94.82Z"/><path class="cls-2" d="M440.84,99.25H429.07l-1.95,5h-4l9.54-24h4.5l9.54,24h-4Zm-10.73-3.2h9.68l-4.86-12.71Z"/><path class="cls-2" d="M454.3,85.79v18.43h-3.6v-24h3.71l13.07,18v-18h3.6v24h-3.49Z"/><path class="cls-2" d="M483.35,83.37H475.9V80.21h18.47v3.16H487v20.85h-3.6Z"/><path class="cls-2" d="M171.71,124.23A12,12,0,0,1,184,111.81a10.84,10.84,0,0,1,9.53,5.08l-3.05,1.62A7.61,7.61,0,0,0,184,115c-4.86,0-8.61,3.81-8.61,9.21s3.75,9.21,8.61,9.21A7.61,7.61,0,0,0,190.5,130l3.05,1.62a10.88,10.88,0,0,1-9.53,5.08A12,12,0,0,1,171.71,124.23Z"/><path class="cls-2" d="M209.32,111.81c7.17,0,12.1,5.29,12.1,12.42s-4.93,12.42-12.1,12.42-12.09-5.29-12.09-12.42S202.16,111.81,209.32,111.81Zm0,3.21c-5.14,0-8.38,3.92-8.38,9.21s3.24,9.21,8.38,9.21,8.39-3.95,8.39-9.21S214.4,115,209.32,115Z"/><path class="cls-2" d="M230.46,117.79v18.43h-3.6v-24h3.7l13.07,18v-18h3.6v24h-3.49Z"/><path class="cls-2" d="M253.64,112.21h16.13v3.16H257.24v7h12.27v3.17H257.24v10.66h-3.6Z"/><path class="cls-2" d="M274.74,112.21h16.12v3.16H278.34v7h12.27v3.17H278.34v7.49h12.52v3.17H274.74Z"/><path class="cls-2" d="M304.54,127H300v9.25h-3.6v-24h10.12c4.57,0,7.7,3,7.7,7.38a6.7,6.7,0,0,1-6,7l6.15,9.61h-4.17Zm1.55-11.6h-6v8.43h6a4.22,4.22,0,1,0,0-8.43Z"/><path class="cls-2" d="M319.77,112.21H335.9v3.16H323.37v7h12.28v3.17H323.37v7.49H335.9v3.17H319.77Z"/><path class="cls-2" d="M345.08,117.79v18.43h-3.6v-24h3.71l13.06,18v-18h3.6v24h-3.49Z"/><path class="cls-2" d="M367.26,124.23a12,12,0,0,1,12.31-12.42,10.87,10.87,0,0,1,9.54,5.08l-3.06,1.62a7.61,7.61,0,0,0-6.48-3.49c-4.86,0-8.61,3.81-8.61,9.21s3.75,9.21,8.61,9.21a7.61,7.61,0,0,0,6.48-3.49l3.06,1.62a10.91,10.91,0,0,1-9.54,5.08A12,12,0,0,1,367.26,124.23Z"/><path class="cls-2" d="M393.79,112.21h16.12v3.16H397.39v7h12.27v3.17H397.39v7.49h12.52v3.17H393.79Z"/></svg>