<svg id="Layer_1" data-name="Layer 1" xmlns="http://www.w3.org/2000/svg" width="180" height="160" viewBox="0 0 180 160"><defs><style>.cls-1{fill:#fff;}.cls-2{fill:#e77500;}.cls-3{fill:none;}</style></defs><title>PFQC_logoSVG_01</title><path class="cls-1" d="M75.2,135.73c-7.46-5.57-32.6-26.74-40.7-64,0,0-.2-.88-.24-1.08A110.91,110.91,0,0,1,32,48.28c0-2.14.06-4.29.18-6.42a40.07,40.07,0,0,0,9.76,1.2A40.23,40.23,0,0,0,75.2,25.38a40.19,40.19,0,0,0,33.25,17.68,40,40,0,0,0,9.76-1.2c.12,2.13.18,4.28.18,6.42a110.91,110.91,0,0,1-2.26,22.32c0,.2-.24,1.08-.24,1.08C107.79,109,82.65,130.16,75.2,135.73Z"/><rect class="cls-2" x="142.42" y="56.57" width="9.01" height="9" transform="translate(20.58 157.78) rotate(-60)"/><rect class="cls-2" x="151.43" y="40.94" width="9.03" height="9" transform="translate(38.62 157.78) rotate(-60)"/><path class="cls-2" d="M75.2,72.1v66.11c11.91-8.46,35-30.86,42.64-66.11Z"/><polygon points="98.86 131.12 75.2 90.13 59.46 117.39 51.66 112.89 75.2 72.13 98.86 113.12 112.53 89.45 118.94 100.55 140.78 62.72 148.57 67.22 118.94 118.55 112.53 107.45 98.86 131.12"/><path d="M120,39.26a38,38,0,0,1-11.59,1.8A38.11,38.11,0,0,1,75.2,21.58,38.14,38.14,0,0,1,41.94,41.06a38,38,0,0,1-11.59-1.8c-.23,2.94-.35,5.94-.35,9A112.76,112.76,0,0,0,32.3,71c.08.37.17.74.25,1.1H75.2V29.59a42.7,42.7,0,0,0,33.25,16,43.37,43.37,0,0,0,7.39-.64c0,1.12,0,2.24,0,3.36a108,108,0,0,1-2.21,21.81c-.14.68-.3,1.35-.45,2h4.61c.08-.36.17-.73.25-1.1a112.76,112.76,0,0,0,2.3-22.72C120.39,45.2,120.27,42.2,120,39.26Z"/><path class="cls-2" d="M76.44,132.74s-1.23-.17-1.24-.16c-8.6-6.76-30.41-26.78-38-60.48H32.55c7.65,35.25,30.73,57.65,42.65,66.11C75.22,138.19,76.44,132.74,76.44,132.74Z"/><path class="cls-3" d="M120,39.26a38,38,0,0,1-11.59,1.8A38.11,38.11,0,0,1,75.2,21.58,38.14,38.14,0,0,1,41.94,41.06a38,38,0,0,1-11.59-1.8c-.23,2.94-.35,5.94-.35,9A112.76,112.76,0,0,0,32.3,71c.08.37.17.74.25,1.1h0c7.65,35.25,30.73,57.65,42.65,66.11h0c11.91-8.46,35-30.86,42.64-66.11h0c.08-.36.17-.73.25-1.1a112.76,112.76,0,0,0,2.3-22.72C120.39,45.2,120.27,42.2,120,39.26Z"/></svg>