<svg width="180" height="160" viewBox="0 0 180 160" fill="none" xmlns="http://www.w3.org/2000/svg">
<g clip-path="url(#clip0)">
<path d="M61.5069 156C51.231 148.378 16.6013 119.41 5.44374 68.4241C5.44374 68.4241 5.16824 67.2199 5.11314 66.9463C3.03432 56.8739 1.99127 46.6177 2.00006 36.3358C2.00006 33.4074 2.0827 30.4654 2.248 27.5508C6.64452 28.6444 11.1599 29.1959 15.6921 29.1928C24.7363 29.1804 33.6399 26.9691 41.6259 22.752C49.6118 18.535 56.4374 12.4403 61.5069 5C66.5716 12.4418 73.3943 18.5378 81.3785 22.7552C89.3626 26.9726 98.2652 29.1829 107.308 29.1928C111.84 29.1969 116.356 28.6454 120.752 27.5508C120.917 30.4654 121 33.4074 121 36.3358C121.004 46.5948 119.961 56.8278 117.887 66.8778C117.887 67.1515 117.556 68.3557 117.556 68.3557C106.399 119.423 71.7691 148.378 61.5069 156Z" fill="white"/>
<path d="M157.09 45.7505L150.951 56.3827L161.572 62.5145L167.71 51.8822L157.09 45.7505Z" fill="#E77500"/>
<path d="M169.38 24.4457L163.228 35.1017L173.848 41.2334L180 30.5775L169.38 24.4457Z" fill="#E77500"/>
<path d="M61 70V159C77.4796 147.611 109.429 117.455 120 70H61Z" fill="#E77500"/>
<path d="M93.2906 149L61.0636 93.8672L39.6243 130.533L29 124.48L61.0636 69.6567L93.2906 124.789L111.91 92.9526L120.641 107.882L150.389 57L161 63.0526L120.641 132.093L111.91 117.163L93.2906 149Z" fill="black"/>
<path d="M122.522 24.4875C117.421 26.1443 112.098 26.9854 106.744 26.9806C97.5323 26.9718 88.4891 24.4678 80.5435 19.7261C72.5979 14.9843 66.0364 8.17577 61.5333 0C57.0213 8.18313 50.4484 14.9959 42.4905 19.7379C34.5326 24.4798 25.477 26.9797 16.2546 26.9806C10.9001 26.9854 5.57737 26.1443 0.476515 24.4875C0.163403 28.5596 3.99907e-05 32.7147 3.99907e-05 36.9529C-0.00746587 47.5323 1.04163 58.0851 3.13116 68.4487C3.24007 68.9612 3.36259 69.4737 3.4715 69.9723H61.5333V11.0942C66.9693 17.9966 73.8578 23.5706 81.6916 27.4058C89.5253 31.2411 98.1048 33.2398 106.798 33.2548C110.171 33.2522 113.536 32.9557 116.859 32.3684C116.859 33.9197 116.859 35.4709 116.859 37.0222C116.866 47.1692 115.858 57.2905 113.85 67.2299C113.66 68.1717 113.442 69.0997 113.238 70H119.513C119.622 69.5014 119.745 68.9889 119.854 68.4764C121.941 58.1219 122.991 47.5785 122.985 37.0083C123.053 32.7147 122.89 28.5596 122.522 24.4875Z" fill="black"/>
<path d="M64 151.636C64 151.636 62.2905 151.407 62.2766 151.421C50.324 142.32 20.0116 115.368 9.46275 70H3C13.6323 117.455 45.7097 147.611 62.2766 159C62.3044 158.973 64 151.636 64 151.636Z" fill="#E77500"/>
</g>
<defs>
<clipPath id="clip0">
<rect width="180" height="160" fill="white"/>
</clipPath>
</defs>
</svg>
