<svg id="Layer_1" data-name="Layer 1" xmlns="http://www.w3.org/2000/svg" width="118" height="118" viewBox="0 0 118 118"><defs><style>.cls-1{fill:#e77500;}.cls-2{fill:none;}</style></defs><title>PFQC_logoExp_02</title><path class="cls-1" d="M90.71,18.26a38,38,0,0,1-11.59,1.8A38.14,38.14,0,0,1,45.86.58,38.11,38.11,0,0,1,12.6,20.06,37.87,37.87,0,0,1,1,18.26c-.23,2.94-.35,5.94-.35,9A112,112,0,0,0,3,50c.08.37.17.74.25,1.1h0C10.86,86.35,34,108.75,45.86,117.21h0c11.92-8.46,35-30.86,42.65-66.11.08-.36.17-.73.24-1.1a112,112,0,0,0,2.31-22.72C91.06,24.2,90.94,21.2,90.71,18.26Z"/><path d="M83.2,86.45l6.4,11.1L118,48.25l-5.84-3.37-7.79-4.5L89.6,66l-6.4-11.1L69.53,78.62l-23.67-41L17.67,86.46a116.69,116.69,0,0,0,10.17,13.89l18-31.22,23.67,41Z"/><path class="cls-2" d="M90.71,18.26a38,38,0,0,1-11.59,1.8A38.14,38.14,0,0,1,45.86.58,38.11,38.11,0,0,1,12.6,20.06,37.87,37.87,0,0,1,1,18.26c-.23,2.94-.35,5.94-.35,9A112,112,0,0,0,3,50c.08.37.17.74.25,1.1h0C10.86,86.35,34,108.75,45.86,117.21h0c11.92-8.46,35-30.86,42.65-66.11h0c.08-.36.17-.73.24-1.1a112,112,0,0,0,2.31-22.72C91.06,24.2,90.94,21.2,90.71,18.26Z"/></svg>